# xmcd CD database file
#
# Track frame offsets:
#	150
#	18950
#	38195
#	53325
#	66600
#	90768
#	116250
#	139425
#
# Disc length: 2180 seconds
#
# Revision: 0
# Processed by: cddbd v1.5.1PL2 Copyright (c) Steve Scherf et al.
# Submitted via: CDex 1.51
#
DISCID=60088208
DTITLE=Shirley Johnson - Looking For Love
DYEAR=1996
DGENRE=Blues
TTITLE0=I've Got To Find Me A Lover
TTITLE1=Too Many Irons In The Fire
TTITLE2=Hat Up
TTITLE3=I'm A Fool For You
TTITLE4=Drowning In The Sea Of Love
TTITLE5=News Is Bad
TTITLE6=Make Me Feel Real Good Tonight
TTITLE7=Trying To Make It Over
EXTD=YEAR: 1996
EXTT0=
EXTT1=
EXTT2=
EXTT3=
EXTT4=
EXTT5=
EXTT6=
EXTT7=
PLAYORDER=
